<svg width="34" height="33" viewBox="0 0 34 33" fill="none" xmlns="http://www.w3.org/2000/svg">
<path d="M15.001 23.5854C15.001 22.9188 15.001 22.2521 15.001 21.5854C14.7618 21.5845 14.5453 21.5104 14.3132 21.3382C13.5171 20.7384 12.9987 19.254 13.001 18.0015C12.9479 15.8719 14.8714 13.9484 17.001 14.0015C19.1306 13.9484 21.0541 15.8719 21.001 18.0015C21.0059 19.2835 20.5176 20.7526 19.7111 21.3236C19.4761 21.4905 19.2361 21.574 18.959 21.5863C18.987 22.2524 19.015 22.9185 19.0429 23.5845C19.6916 23.5628 20.3592 23.3252 20.8738 22.9509C22.5685 21.6126 22.9495 19.7508 23.001 18.0015C23.0774 14.8044 20.198 11.925 17.001 12.0015C13.804 11.925 10.9246 14.8044 11.001 18.0015C11.0613 19.783 11.4801 21.5743 13.1148 22.9395C13.6181 23.3248 14.3124 23.5927 15.001 23.5854Z" fill="white"/>
<path d="M15.001 23.2263C13.2498 23.2263 11.8451 24.4292 10.637 25.6374C8.94919 27.3252 8.00098 29.6144 8.00098 32.0013H26.001C25.9989 29.615 25.05 27.3271 23.3626 25.6397C22.155 24.4321 20.5782 23.2279 19.001 23.2279" stroke="white" stroke-width="2"/>
<path d="M22.001 11.5854C22.001 10.9188 22.001 10.2521 22.001 9.58542C21.7618 9.58452 21.5453 9.5104 21.3132 9.33825C20.5171 8.73841 19.9987 7.25403 20.001 6.00146C19.9479 3.87188 21.8714 1.94837 24.001 2.00146C26.1306 1.94837 28.0541 3.87188 28.001 6.00146C28.0059 7.28345 27.5176 8.75255 26.7111 9.3236C26.4761 9.49051 26.2361 9.57396 25.959 9.5863C25.987 10.2524 26.015 10.9185 26.0429 11.5845C26.6916 11.5628 27.3592 11.3252 27.8738 10.9509C29.5685 9.61265 29.9495 7.75079 30.001 6.00146C30.0774 2.80444 27.198 -0.0749589 24.001 0.00146484C20.804 -0.0749595 17.9246 2.80444 18.001 6.00146C18.0613 7.78302 18.4801 9.57432 20.1148 10.9395C20.6181 11.3248 21.3124 11.5927 22.001 11.5854Z" fill="white"/>
<path d="M22.0009 11.2263C21.2788 11.2263 20.6157 11.4308 20.001 11.7559" stroke="white" stroke-width="2"/>
<path d="M23.501 20.0013C23.9473 20.0012 24.4279 20.0012 24.946 20.0012" stroke="white" stroke-width="2"/>
<path d="M26.0009 11.228C27.5781 11.228 29.1549 12.4322 30.3625 13.6398C32.0499 15.3272 32.9988 17.6151 33.0009 20.0014C33.0009 20.0014 28.5551 20.0014 24.9458 20.0014" stroke="white" stroke-width="2"/>
<path d="M12.001 11.5854C12.001 10.9188 12.001 10.2521 12.001 9.58542C12.2402 9.58452 12.4567 9.5104 12.6888 9.33825C13.4848 8.73841 14.0033 7.25403 14.001 6.00146C14.0541 3.87188 12.1306 1.94837 10.001 2.00146C7.87139 1.94837 5.94788 3.87188 6.00098 6.00146C5.99607 7.28345 6.48432 8.75255 7.29084 9.3236C7.52584 9.49051 7.76581 9.57396 8.04292 9.5863C8.01496 10.2524 7.987 10.9185 7.95904 11.5845C7.31033 11.5628 6.64278 11.3252 6.12818 10.9509C4.43343 9.61265 4.05248 7.75079 4.00098 6.00146C3.92455 2.80444 6.80395 -0.0749589 10.001 0.00146484C13.198 -0.0749595 16.0774 2.80444 16.001 6.00146C15.9407 7.78302 15.5219 9.57432 13.8872 10.9395C13.3838 11.3248 12.6896 11.5927 12.001 11.5854Z" fill="white"/>
<path d="M12.0011 11.2263C12.7231 11.2263 13.3862 11.4308 14.001 11.7559" stroke="white" stroke-width="2"/>
<path d="M10.501 20.0013C10.0546 20.0012 9.57407 20.0012 9.05594 20.0012" stroke="white" stroke-width="2"/>
<path d="M8.00108 11.228C6.4239 11.228 4.84707 12.4322 3.63945 13.6398C1.95208 15.3272 1.00319 17.6151 1.00108 20.0014C1.00108 20.0014 5.44686 20.0014 9.05615 20.0014" stroke="white" stroke-width="2"/>
</svg>
