<svg width="52" height="57" viewBox="0 0 52 57" fill="none" xmlns="http://www.w3.org/2000/svg">
<path d="M17.6457 43.5001H8.59076C5.23494 43.5001 3.55705 43.5001 3.20401 43.2395C2.8074 42.9467 2.71049 42.7739 2.66753 42.283C2.62932 41.8459 3.65769 40.163 5.71449 36.7977C7.83809 33.3228 9.64129 24.7633 9.64129 17.6001C9.64129 13.6395 11.327 9.84118 14.3276 7.04062C17.3281 4.24008 21.3978 2.66675 25.6413 2.66675C29.8847 2.66675 33.9543 4.24008 36.9549 7.04062C39.9557 9.84118 41.6413 13.6395 41.6413 17.6001C41.6413 24.7633 43.4445 33.3228 45.5682 36.7977C47.6247 40.163 48.6533 41.8459 48.6151 42.283C48.5722 42.7739 48.4751 42.9467 48.0786 43.2395C47.7255 43.5001 46.0477 43.5001 42.6919 43.5001H33.6413M17.6457 43.5001L17.6413 46.1667C17.6413 50.5851 21.2231 54.1667 25.6413 54.1667C30.0597 54.1667 33.6413 50.5851 33.6413 46.1667V43.5001M17.6457 43.5001H33.6413" stroke="white" stroke-width="5.33333" stroke-linecap="round" stroke-linejoin="round"/>
</svg>
