<!DOCTYPE svg PUBLIC "-//W3C//DTD SVG 1.1//EN" "http://www.w3.org/Graphics/SVG/1.1/DTD/svg11.dtd">
<!-- Uploaded to: SVG Repo, www.svgrepo.com, Transformed by: SVG Repo Mixer Tools -->
<svg fill="#ffffff" height="800px" width="800px" version="1.1" id="Layer_1" xmlns="http://www.w3.org/2000/svg" xmlns:xlink="http://www.w3.org/1999/xlink" viewBox="0 0 512 512" xml:space="preserve">
<g id="SVGRepo_bgCarrier" stroke-width="0"/>
<g id="SVGRepo_tracerCarrier" stroke-linecap="round" stroke-linejoin="round"/>
<g id="SVGRepo_iconCarrier"> <g> <g> <path d="M112.059,0v453.476h48.489V512h31.345v-58.524h128.213V512h31.345v-58.524h48.489V0H112.059z M143.404,422.13V31.345 h225.192V422.13H143.404z"/> </g> </g> <g> <g> <path d="M255.67,38.836c-49.198,0-89.223,40.026-89.223,89.224s40.025,89.223,89.223,89.223c14.394,0,27.99-3.447,40.042-9.527 l1.616-0.826l0.009-0.007c28.257-14.99,47.556-44.708,47.556-78.862C344.894,78.862,304.868,38.836,255.67,38.836z M216.418,170.544c-7.738-7.155-13.516-16.392-16.451-26.812h16.451V170.544z M216.418,112.387h-16.451 c2.935-10.42,8.712-19.657,16.451-26.812V112.387z M265.991,184.997c-3.352,0.606-6.798,0.94-10.321,0.94 c-2.683,0-5.319-0.199-7.906-0.554v-41.651h18.227V184.997z M265.991,112.387h-18.227V70.735c2.587-0.355,5.223-0.554,7.906-0.554 c3.524,0,6.969,0.334,10.321,0.94V112.387z M297.336,168.168v-24.436h14.036C308.751,153.036,303.862,161.392,297.336,168.168z M297.336,112.387V87.95c6.526,6.778,11.416,15.134,14.036,24.437H297.336z"/> </g> </g> <g> <g> <path d="M255.669,230.046c-49.198,0-89.223,40.025-89.223,89.223s40.026,89.224,89.224,89.224c14.394,0,27.99-3.447,40.041-9.527 l1.623-0.837l0.003,0.003c28.257-14.99,47.556-44.709,47.556-78.863C344.893,270.072,304.867,230.046,255.669,230.046z M216.418,361.755c-7.738-7.155-13.516-16.392-16.451-26.812h16.451V361.755z M216.418,303.598h-16.451 c2.935-10.419,8.712-19.657,16.451-26.812V303.598z M265.991,376.208c-3.352,0.606-6.798,0.94-10.321,0.94 c-2.683,0-5.319-0.199-7.906-0.554v-41.652h18.227V376.208z M265.991,303.598h-18.227v-41.651 c2.587-0.355,5.223-0.554,7.906-0.554c3.524,0,6.969,0.334,10.321,0.94V303.598z M297.336,359.38v-24.437h14.036 C308.751,344.246,303.862,352.602,297.336,359.38z M297.336,303.597v-24.436c6.526,6.778,11.416,15.134,14.036,24.436H297.336z"/> </g> </g> </g>
</svg>