<svg width="751" height="739" viewBox="0 0 751 739" fill="none" xmlns="http://www.w3.org/2000/svg">
<path d="M159.308 268.841C119.192 294.173 93.8672 331.331 93.8672 372.746C93.8672 414.161 119.192 451.319 159.308 476.651V557.24C64.9088 523.63 0 453.641 0 372.746C1.12232e-05 291.851 64.9088 221.862 159.308 188.252V268.841Z" fill="white"/>
<rect x="434.473" y="7.24121" width="79.6534" height="173.789" rx="39.8267" fill="white"/>
<rect x="693.247" y="193.863" width="79.6534" height="396.201" rx="39.8267" transform="rotate(43.6061 693.247 193.863)" fill="white"/>
<rect width="79.6534" height="396.201" rx="39.8267" transform="matrix(-0.728625 0.684913 0.684912 0.728626 479.242 194.387)" fill="white"/>
<rect x="434.473" y="557.574" width="79.6534" height="181.03" rx="39.8267" fill="white"/>
<rect x="472.821" width="80.3653" height="470.408" rx="40.1826" transform="rotate(60.0428 472.821 0)" fill="white"/>
<rect width="80.3653" height="470.408" rx="40.1826" transform="matrix(0.499354 -0.866398 -0.866398 -0.499354 472.73 739)" fill="white"/>
</svg>
